<svg width="348" height="234" viewBox="0 0 348 234" fill="none" xmlns="http://www.w3.org/2000/svg">
<g opacity="0.5">
<path opacity="0.1" d="M226.863 15.4378H173.706V0.22998H254L186.053 111.638L173.147 103.476L226.863 15.4378Z" fill="#111111"/>
<path opacity="0.1" d="M198.685 131.815L192.965 144.281H163.048L156.521 157.626C169.476 159.533 179.742 164.348 187.319 172.072C193.821 178.72 197.072 186.542 197.072 195.537C197.072 200.768 195.996 205.607 193.845 210.056C191.743 214.505 189.079 218.293 185.853 221.422C182.626 224.551 179.033 227.068 175.073 228.975C169.452 231.663 163.683 233.008 157.768 233.008C151.804 233.008 147.453 232.006 144.716 230.001C142.027 227.948 140.682 225.699 140.682 223.255C140.682 221.886 141.245 220.689 142.369 219.662C143.493 218.586 144.911 218.049 146.622 218.049C147.893 218.049 148.993 218.244 149.922 218.635C150.9 219.026 152.537 220.029 154.835 221.642C158.501 224.184 162.216 225.455 165.981 225.455C171.7 225.455 176.711 223.304 181.013 219.002C185.364 214.651 187.539 209.372 187.539 203.163C187.539 197.15 185.608 191.553 181.746 186.371C177.884 181.14 172.556 177.107 165.761 174.272C160.432 172.072 153.173 170.801 143.982 170.459L163.048 131.815H198.685Z" fill="#111111"/>
<path opacity="0.1" d="M321.539 72.6995C326.409 72.6995 330.792 73.6734 334.688 75.6213C338.583 77.512 341.648 80.262 343.883 83.8713C346.117 87.4234 347.234 91.6344 347.234 96.5042C347.234 102.119 345.716 107.017 342.68 111.199C339.643 115.324 335.604 118.647 330.562 121.168C326.438 123.116 317.729 126.181 304.438 130.364C311.026 133.114 315.867 137.095 318.961 142.309C322.112 147.465 323.688 153.423 323.688 160.184C323.688 167.46 321.51 174.335 317.156 180.809C312.859 187.226 306.643 192.41 298.508 196.364C290.372 200.317 280.862 202.293 269.977 202.293C259.721 202.293 250.24 200.517 241.531 196.965C232.88 193.356 225.948 188.228 220.734 181.582C215.578 174.936 213 167.231 213 158.465C213 150.731 214.919 144.199 218.758 138.871C222.596 133.543 226.951 129.504 231.82 126.754C236.747 123.947 241.302 121.999 245.484 120.91C239.755 118.447 235.372 115.181 232.336 111.114C229.299 107.046 227.781 102.749 227.781 98.2229C227.781 94.3271 228.927 90.7177 231.219 87.3948C233.51 84.0146 236.891 81.3219 241.359 79.3167C245.828 77.2542 251.214 76.2229 257.516 76.2229C265.365 76.2229 271.466 77.9989 275.82 81.551C277.997 83.3271 279.63 85.3036 280.719 87.4807C281.807 89.6005 282.352 91.663 282.352 93.6682C282.352 96.4755 281.349 98.7385 279.344 100.457C277.339 102.176 275.047 103.035 272.469 103.035C269.948 103.035 267.771 102.233 265.938 100.629C264.161 99.025 263.273 96.8765 263.273 94.1838C263.273 91.663 264.133 89.4859 265.852 87.6526C267.628 85.8193 269.891 84.788 272.641 84.5588C272.125 83.012 270.635 81.6943 268.172 80.6057C265.708 79.4599 262.729 78.887 259.234 78.887C253.104 78.887 248.177 80.7203 244.453 84.387C240.729 88.0536 238.867 93.2099 238.867 99.8557C238.867 107.705 241.846 114.379 247.805 119.879C251.872 119.192 255.51 118.848 258.719 118.848C260.896 118.848 262.615 119.192 263.875 119.879C265.135 120.567 265.766 121.569 265.766 122.887C265.766 123.918 265.307 124.749 264.391 125.379C263.531 125.952 262.357 126.239 260.867 126.239C259.148 126.239 257.315 125.923 255.367 125.293C253.419 124.663 251.786 124.061 250.469 123.489C249.151 122.858 248.32 122.486 247.977 122.371C232.737 126.897 225.117 136.522 225.117 151.246C225.117 159.095 227.18 165.884 231.305 171.614C235.43 177.343 241.073 181.726 248.234 184.762C255.396 187.741 263.417 189.231 272.297 189.231C280.661 189.231 288.367 187.942 295.414 185.364C302.461 182.728 308.076 178.976 312.258 174.106C316.44 169.179 318.531 163.478 318.531 157.004C318.531 152.421 317.271 147.723 314.75 142.91C312.286 138.041 307.646 134.231 300.828 131.481C290.401 134.746 283.641 136.981 280.547 138.184C275.62 140.074 271.81 142.223 269.117 144.629C266.424 147.035 265.078 149.986 265.078 153.481C265.078 156.345 265.909 158.866 267.57 161.043C269.289 163.163 271.409 164.796 273.93 165.942C276.451 167.03 278.885 167.574 281.234 167.574C283.24 167.574 285.417 167.231 287.766 166.543C290.172 165.856 291.518 164.91 291.805 163.707C289.57 163.306 287.622 162.39 285.961 160.957C284.357 159.525 283.555 157.462 283.555 154.77C283.555 152.02 284.471 149.814 286.305 148.153C288.138 146.434 290.43 145.574 293.18 145.574C295.987 145.574 298.25 146.462 299.969 148.239C301.688 149.957 302.547 152.249 302.547 155.114C302.547 158.265 301.487 160.986 299.367 163.278C297.247 165.569 294.555 167.317 291.289 168.52C288.081 169.666 284.844 170.239 281.578 170.239C278.026 170.239 274.56 169.494 271.18 168.004C267.857 166.515 265.107 164.223 262.93 161.129C260.81 158.035 259.75 154.197 259.75 149.614C259.75 143.655 261.755 138.585 265.766 134.403C269.833 130.22 275.935 126.726 284.07 123.918C286.362 123.173 290.773 121.884 297.305 120.051C303.893 118.16 309.536 116.47 314.234 114.981C318.932 113.491 323.201 111.858 327.039 110.082C332.596 107.447 336.492 104.783 338.727 102.09C341.018 99.3401 342.164 96.3609 342.164 93.1526C342.164 89.887 341.219 86.9078 339.328 84.2151C337.438 81.4651 334.917 79.3167 331.766 77.7698C328.672 76.1656 325.32 75.3635 321.711 75.3635C318.732 75.3635 316.984 75.8792 316.469 76.9104C318.016 77.7125 319.219 78.887 320.078 80.4338C320.938 81.9234 321.367 83.4703 321.367 85.0745C321.367 87.4807 320.393 89.5146 318.445 91.176C316.497 92.8375 314.177 93.6682 311.484 93.6682C308.964 93.6682 306.786 92.9234 304.953 91.4338C303.12 89.887 302.203 87.7099 302.203 84.9026C302.203 82.038 303.177 79.689 305.125 77.8557C307.073 76.0224 309.508 74.7047 312.43 73.9026C315.409 73.1005 318.445 72.6995 321.539 72.6995Z" fill="#111111"/>
<path opacity="0.1" d="M266.525 43.2375C266.825 40.7566 267.728 38.5952 269.231 36.7533C270.772 34.8739 272.727 33.4455 275.095 32.4682C277.463 31.4533 280.019 30.9458 282.763 30.9458C285.319 30.9458 287.706 31.3405 289.924 32.1299C292.142 32.8816 295.525 34.3664 300.073 36.5842C304.621 38.7643 308.643 39.8544 312.139 39.8544C317.176 39.8544 320.634 37.6179 322.514 33.1448L324.487 33.765C324.187 36.2459 323.266 38.4072 321.724 40.2491C320.183 42.091 318.229 43.5194 315.861 44.5343C313.492 45.5116 310.936 46.0003 308.192 46.0003C305.636 46.0003 303.249 45.6244 301.032 44.8726C298.814 44.0832 295.431 42.5984 290.883 40.4183C286.334 38.2005 282.331 37.0916 278.873 37.0916C273.798 37.0916 270.321 39.3282 268.442 43.8013L266.525 43.2375Z" fill="#111111"/>
<path opacity="0.1" d="M115.638 180.193C118.895 188.466 123.52 192.733 129.514 192.994V197C124.042 196.609 116.876 196.414 108.016 196.414C96.6157 196.414 88.0817 196.609 82.4141 197V192.994C87.4954 192.798 91.1109 192.179 93.2607 191.137C95.4756 190.095 96.5831 188.238 96.5831 185.567C96.5831 183.287 95.8014 180.16 94.2379 176.186L81.9255 143.353H33.6533L25.445 164.558C22.7741 171.333 21.4386 176.805 21.4386 180.975C21.4386 185.209 22.8392 188.238 25.6405 190.062C28.5068 191.886 32.9041 192.863 38.8323 192.994V197C31.2103 196.609 23.5233 196.414 15.771 196.414C9.77772 196.414 4.79414 196.609 0.820312 197V192.994C7.46508 191.495 12.7092 185.698 16.5528 175.6L63.6524 54.3331H66.8771L115.638 180.193ZM58.0825 79.6419L35.119 139.347H80.4598L58.0825 79.6419ZM42.8387 19.2527C44.8582 19.2527 46.7474 19.8064 48.5063 20.9139C50.3303 21.9562 51.7635 23.3894 52.8058 25.2134C53.9133 26.9723 54.467 28.8615 54.467 30.881C54.467 32.9657 53.9133 34.92 52.8058 36.7441C51.7635 38.503 50.3303 39.9036 48.5063 40.9459C46.7474 41.9882 44.8582 42.5094 42.8387 42.5094C39.6466 42.5094 36.9105 41.3693 34.6304 39.0893C32.3504 36.8092 31.2103 34.0731 31.2103 30.881C31.2103 28.8615 31.7315 26.9723 32.7738 25.2134C33.8161 23.3894 35.2167 21.9562 36.9756 20.9139C38.7997 19.8064 40.754 19.2527 42.8387 19.2527ZM85.2479 19.2527C87.2674 19.2527 89.1566 19.8064 90.9155 20.9139C92.7396 21.9562 94.1727 23.3894 95.2151 25.2134C96.3225 26.9723 96.8762 28.8615 96.8762 30.881C96.8762 32.9657 96.3225 34.92 95.2151 36.7441C94.1727 38.503 92.7721 39.9036 91.0132 40.9459C89.2543 41.9882 87.3325 42.5094 85.2479 42.5094C82.0558 42.5094 79.3197 41.3693 77.0397 39.0893C74.7596 36.8092 73.6196 34.0731 73.6196 30.881C73.6196 28.8615 74.1407 26.9723 75.183 25.2134C76.2254 23.3894 77.626 21.9562 79.3849 20.9139C81.2089 19.8064 83.1633 19.2527 85.2479 19.2527Z" fill="#111111"/>
<path opacity="0.1" d="M106.989 88.3424C106.989 103.017 115.027 113.112 127.833 113.112C139.517 113.112 143.349 104.326 143.349 104.326H143.536C143.536 104.326 143.442 105.635 143.442 107.504V111.991H152.042V46H142.975V67.8722C142.975 69.6482 143.162 71.0503 143.162 71.0503H142.975C142.975 71.0503 139.33 63.5726 128.393 63.5726C115.868 63.5726 106.989 73.2936 106.989 88.3424ZM116.242 88.3424C116.242 77.5932 122.411 71.4241 129.889 71.4241C138.862 71.4241 143.255 79.8365 143.255 88.2489C143.255 100.307 136.619 105.261 129.609 105.261C121.757 105.261 116.242 98.6242 116.242 88.3424Z" fill="#111111"/>
</g>
</svg>
